<?xml version="1.0" encoding="UTF-8" standalone="no" ?>
<!DOCTYPE svg PUBLIC "-//W3C//DTD SVG 1.1//EN" "http://www.w3.org/Graphics/SVG/1.1/DTD/svg11.dtd">
<svg xmlns="http://www.w3.org/2000/svg" xmlns:xlink="http://www.w3.org/1999/xlink" version="1.1" width="1080" height="1080" viewBox="0 0 1080 1080" xml:space="preserve">
<desc>Created with Fabric.js 5.2.4</desc>
<defs>
</defs>
<g transform="matrix(1 0 0 1 540 540)" id="b0623f3d-1a63-425f-9846-a197bdacaebf"  >
<rect style="stroke: none; stroke-width: 1; stroke-dasharray: none; stroke-linecap: butt; stroke-dashoffset: 0; stroke-linejoin: miter; stroke-miterlimit: 4; fill: rgb(255,255,255); fill-rule: nonzero; opacity: 1; visibility: hidden;" vector-effect="non-scaling-stroke"  x="-540" y="-540" rx="0" ry="0" width="1080" height="1080" />
</g>
<g transform="matrix(1 0 0 1 540 540)" id="256f7a76-3dda-44bb-a879-9b7139b64328"  >
</g>
<g transform="matrix(1 0 0 0.96 625.65 540)" style="" id="e5508232-308f-430a-8d25-e3af1bc186a2"  >
		<text xml:space="preserve" font-family="Lato" font-size="105" font-style="normal" font-weight="900" style="stroke: none; stroke-width: 1; stroke-dasharray: none; stroke-linecap: butt; stroke-dashoffset: 0; stroke-linejoin: miter; stroke-miterlimit: 4; fill: rgb(0,0,0); fill-rule: nonzero; opacity: 1; white-space: pre;" ><tspan x="-169.22" y="32.98" >TIGER</tspan></text>
</g>
<g transform="matrix(1.04 0 0 1.04 371.19 526.56)"  >
<!-- Cart -->
<path style="stroke: none; stroke-width: 1; stroke-dasharray: none; stroke-linecap: butt; stroke-dashoffset: 0; stroke-linejoin: miter; stroke-miterlimit: 4; fill: rgb(41,41,41); fill-rule: nonzero; opacity: 1;" vector-effect="non-scaling-stroke"  transform=" translate(-17.1, -37.55)" d="M 30.1 42.5 L 32.800000000000004 30.1 C 32.800000000000004 30 32.800000000000004 29.8 32.7 29.700000000000003 C 32.6 29.6 32.5 29.500000000000004 32.300000000000004 29.500000000000004 L 10 29.500000000000004 L 8.8 25.1 C 8.700000000000001 24.700000000000003 8.3 24.400000000000002 7.9 24.400000000000002 L 2.4 24.400000000000002 C 1.9 24.400000000000002 1.4 24.8 1.4 25.400000000000002 C 1.4 25.900000000000002 1.7999999999999998 26.400000000000002 2.4 26.400000000000002 L 7.1 26.400000000000002 C 7.1 26.400000000000002 12.7 46.7 12.8 46.8 C 12.600000000000001 47.199999999999996 12.5 47.599999999999994 12.5 48 C 12.5 49.5 13.7 50.7 15.2 50.7 C 16.7 50.7 17.9 49.5 17.9 48 C 17.9 47.7 17.9 47.5 17.799999999999997 47.2 L 26.499999999999996 47.2 C 26.399999999999995 47.400000000000006 26.399999999999995 47.7 26.399999999999995 48 C 26.399999999999995 49.5 27.599999999999994 50.7 29.099999999999994 50.7 C 30.599999999999994 50.7 31.799999999999994 49.5 31.799999999999994 48 C 31.799999999999994 46.7 30.799999999999994 45.6 29.599999999999994 45.3 C 29.499999999999993 45.199999999999996 14.399999999999995 45.199999999999996 14.399999999999995 45.199999999999996 L 13.699999999999996 42.8 L 29.599999999999994 42.8 C 29.8 42.9 30 42.7 30.1 42.5 z M 29.1 47 C 29.700000000000003 47 30.1 47.5 30.1 48 C 30.1 48.6 29.6 49 29.1 49 C 28.5 49 28.1 48.5 28.1 48 C 28.1 47.4 28.6 47 29.1 47 z M 15.2 47 C 15.799999999999999 47 16.2 47.5 16.2 48 C 16.2 48.6 15.7 49 15.2 49 C 14.6 49 14.2 48.5 14.2 48 C 14.2 47.4 14.7 47 15.2 47 z" stroke-linecap="round" />
</g>
<!-- hand -->
<g transform="matrix(1.04 0 0 1.04 421 539.9)"  >
<path style="stroke: none; stroke-width: 1; stroke-dasharray: none; stroke-linecap: butt; stroke-dashoffset: 0; stroke-linejoin: miter; stroke-miterlimit: 4; fill: rgb(41,41,41); fill-rule: nonzero; opacity: 1;" vector-effect="non-scaling-stroke"  transform=" translate(-65.15, -50.42)" d="M 98.6 72.4 C 98.3 71.10000000000001 98.3 69 98.3 66.60000000000001 C 98.3 58.900000000000006 98.39999999999999 47.20000000000001 89.5 33.30000000000001 C 89.5 33.30000000000001 89.5 33.30000000000001 89.5 33.30000000000001 L 84.1 24.80000000000001 C 83.19999999999999 23.30000000000001 81.69999999999999 22.30000000000001 80 21.900000000000013 C 78.3 21.500000000000014 76.5 21.80000000000001 75 22.80000000000001 C 75 22.80000000000001 74.9 22.80000000000001 74.9 22.900000000000013 C 74 23.500000000000014 73.30000000000001 24.200000000000014 72.80000000000001 25.100000000000012 C 72.00000000000001 24.50000000000001 71.10000000000001 24.100000000000012 70.20000000000002 23.900000000000013 C 68.40000000000002 23.500000000000014 66.60000000000002 23.80000000000001 65.10000000000002 24.80000000000001 C 65.00000000000003 24.80000000000001 65.00000000000003 24.900000000000013 64.90000000000002 24.900000000000013 C 63.80000000000002 25.700000000000014 62.90000000000002 26.700000000000014 62.40000000000002 28.000000000000014 C 60.50000000000002 27.100000000000016 58.20000000000002 27.200000000000014 56.30000000000002 28.300000000000015 C 56.20000000000002 28.300000000000015 56.100000000000016 28.400000000000016 56.00000000000002 28.400000000000016 C 55.200000000000024 28.900000000000016 54.50000000000002 29.600000000000016 54.00000000000002 30.400000000000016 L 45.300000000000026 16.700000000000017 C 44.300000000000026 15.100000000000017 42.60000000000002 13.900000000000016 40.700000000000024 13.500000000000018 C 38.800000000000026 13.100000000000017 36.90000000000003 13.400000000000018 35.200000000000024 14.500000000000018 C 35.200000000000024 14.500000000000018 35.200000000000024 14.500000000000018 35.10000000000002 14.600000000000017 C 35.10000000000002 14.600000000000017 35.00000000000002 14.600000000000017 35.00000000000002 14.600000000000017 C 33.40000000000002 15.600000000000017 32.200000000000024 17.30000000000002 31.800000000000022 19.200000000000017 C 31.400000000000023 21.100000000000016 31.70000000000002 23.000000000000018 32.800000000000026 24.700000000000017 L 47.300000000000026 47.600000000000016 C 46.60000000000002 47.90000000000001 45.90000000000003 48.40000000000001 45.200000000000024 48.90000000000001 C 44.90000000000003 49.100000000000016 44.50000000000002 49.40000000000001 44.200000000000024 49.600000000000016 C 44.200000000000024 49.600000000000016 44.200000000000024 49.600000000000016 44.200000000000024 49.600000000000016 C 42.50000000000002 50.70000000000002 41.300000000000026 52.40000000000001 40.800000000000026 54.40000000000001 C 40.300000000000026 56.40000000000001 40.700000000000024 58.500000000000014 41.800000000000026 60.20000000000001 L 46.90000000000003 68.20000000000002 C 47.00000000000003 68.30000000000001 47.10000000000003 68.50000000000001 47.200000000000024 68.60000000000002 C 53.300000000000026 77.10000000000002 60.90000000000002 79.30000000000003 66.00000000000003 80.80000000000003 C 67.40000000000003 81.20000000000003 68.60000000000002 81.60000000000002 69.50000000000003 82.00000000000003 C 69.70000000000003 82.10000000000002 69.80000000000003 82.10000000000002 70.00000000000003 82.10000000000002 C 70.00000000000003 82.10000000000002 70.00000000000003 82.10000000000002 70.00000000000003 82.10000000000002 C 72.40000000000003 82.60000000000002 73.10000000000002 83.80000000000003 74.40000000000003 85.90000000000002 L 74.90000000000003 86.60000000000002 C 75.30000000000004 87.20000000000002 75.90000000000003 87.50000000000003 76.60000000000004 87.50000000000003 C 77.00000000000004 87.50000000000003 77.30000000000004 87.40000000000003 77.70000000000003 87.20000000000003 C 78.60000000000004 86.60000000000004 78.90000000000003 85.40000000000003 78.30000000000003 84.50000000000003 L 77.90000000000002 83.80000000000003 C 76.50000000000001 81.50000000000003 75.00000000000001 79.10000000000002 71.00000000000001 78.20000000000003 C 71.00000000000001 78.20000000000003 71.00000000000001 78.20000000000003 71.00000000000001 78.20000000000003 C 69.90000000000002 77.70000000000003 68.70000000000002 77.40000000000003 67.20000000000002 77.00000000000003 C 62.000000000000014 75.50000000000003 55.000000000000014 73.40000000000003 49.500000000000014 64.70000000000003 L 49.500000000000014 64.70000000000003 L 45.4 58 C 44.9 57.2 44.699999999999996 56.2 44.9 55.2 C 45.1 54.2 45.699999999999996 53.400000000000006 46.5 52.900000000000006 C 46.5 52.900000000000006 46.5 52.900000000000006 46.5 52.900000000000006 C 46.9 52.60000000000001 47.3 52.400000000000006 47.6 52.10000000000001 C 48.300000000000004 51.60000000000001 49.300000000000004 51.00000000000001 49.5 50.900000000000006 C 49.5 50.900000000000006 49.6 51.00000000000001 49.9 51.300000000000004 L 55.8 60.60000000000001 C 56.199999999999996 61.20000000000001 56.8 61.50000000000001 57.5 61.50000000000001 C 57.9 61.50000000000001 58.2 61.400000000000006 58.6 61.20000000000001 C 59.5 60.60000000000001 59.800000000000004 59.40000000000001 59.2 58.50000000000001 L 53.300000000000004 49.2 C 53.300000000000004 49.2 53.300000000000004 49.2 53.300000000000004 49.2 C 53.300000000000004 49.2 53.300000000000004 49.2 53.300000000000004 49.2 L 36.300000000000004 22.500000000000004 C 35.800000000000004 21.800000000000004 35.7 20.900000000000002 35.900000000000006 20.000000000000004 C 36.10000000000001 19.100000000000005 36.60000000000001 18.400000000000002 37.400000000000006 17.900000000000002 C 37.400000000000006 17.900000000000002 37.400000000000006 17.900000000000002 37.50000000000001 17.8 C 37.50000000000001 17.8 37.60000000000001 17.8 37.60000000000001 17.8 C 38.30000000000001 17.3 39.20000000000001 17.2 40.10000000000001 17.400000000000002 C 41.00000000000001 17.6 41.70000000000001 18.1 42.20000000000001 18.900000000000002 L 54.20000000000001 37.8 L 54.20000000000001 37.8 L 54.20000000000001 37.8 L 59.80000000000001 46.599999999999994 C 60.20000000000001 47.199999999999996 60.80000000000001 47.49999999999999 61.500000000000014 47.49999999999999 C 61.90000000000001 47.49999999999999 62.20000000000002 47.39999999999999 62.600000000000016 47.199999999999996 C 63.500000000000014 46.599999999999994 63.80000000000002 45.4 63.20000000000002 44.49999999999999 L 57.600000000000016 35.69999999999999 C 56.80000000000002 34.39999999999999 57.20000000000002 32.69999999999999 58.500000000000014 31.79999999999999 C 58.500000000000014 31.79999999999999 58.500000000000014 31.79999999999999 58.500000000000014 31.79999999999999 C 59.80000000000001 30.99999999999999 61.500000000000014 31.39999999999999 62.40000000000001 32.69999999999999 L 68.00000000000001 41.499999999999986 C 68.40000000000002 42.09999999999999 69.00000000000001 42.399999999999984 69.70000000000002 42.399999999999984 C 70.10000000000002 42.399999999999984 70.40000000000002 42.29999999999998 70.80000000000001 42.09999999999999 C 71.70000000000002 41.499999999999986 72.00000000000001 40.29999999999999 71.4 39.399999999999984 L 66.5 32 C 66.5 32 66.5 32 66.5 32 C 66.1 31.4 66 30.6 66.1 29.9 C 66.3 29.2 66.69999999999999 28.5 67.3 28.099999999999998 C 67.3 28.099999999999998 67.3 28.099999999999998 67.3 28.099999999999998 C 67.89999999999999 27.7 68.7 27.599999999999998 69.39999999999999 27.7 C 70.1 27.9 70.8 28.3 71.19999999999999 28.9 L 73.1 31.799999999999997 C 73.1 31.799999999999997 73.1 31.799999999999997 73.1 31.799999999999997 C 73.1 31.799999999999997 73.1 31.799999999999997 73.1 31.799999999999997 L 76.89999999999999 37.699999999999996 C 77.3 38.3 77.89999999999999 38.599999999999994 78.6 38.599999999999994 C 79 38.599999999999994 79.3 38.49999999999999 79.69999999999999 38.3 C 80.6 37.699999999999996 80.89999999999999 36.5 80.29999999999998 35.599999999999994 L 76.49999999999999 29.699999999999996 L 76.49999999999999 29.699999999999996 C 76.09999999999998 29.099999999999994 75.99999999999999 28.399999999999995 76.19999999999999 27.699999999999996 C 76.39999999999999 26.999999999999996 76.79999999999998 26.399999999999995 77.29999999999998 26.099999999999994 C 77.29999999999998 26.099999999999994 77.29999999999998 26.099999999999994 77.29999999999998 26.099999999999994 C 77.89999999999998 25.699999999999996 78.59999999999998 25.599999999999994 79.29999999999998 25.799999999999994 C 79.99999999999999 25.999999999999993 80.59999999999998 26.399999999999995 80.89999999999998 26.899999999999995 L 86.29999999999998 35.39999999999999 C 94.59999999999998 48.39999999999999 94.49999999999999 59.39999999999999 94.49999999999999 66.6 C 94.49999999999999 69.39999999999999 94.49999999999999 71.6 94.89999999999999 73.3 C 95.1 74.2 95.89999999999999 74.8 96.8 74.8 C 97 74.8 97.1 74.8 97.3 74.7 C 98.2 74.5 98.9 73.4 98.6 72.4 z" stroke-linecap="round" />
</g>

</svg>